<svg xmlns="http://www.w3.org/2000/svg" width="355" height="50" viewBox="0 0 355 50">
  <g fill="none" fill-rule="evenodd">
    <path fill="#EA4A34" d="M13.8631277,32.9855093 L3.85561233,50 L2,48.9480697 L12.0036359,31.9395452 L5,28 L18.979646,20.1364492 L12,15.8865857 L13.0328356,14 L20.0576023,18.2773372 L30.0022421,0.65926 L31.7798211,1.70996 L21.8216086,19.3514298 L28,23.1134143 L26.9671644,25 L21,21.3666303 L21,37 L13.8631277,32.9855093 Z M14.8900669,31.2395368 L19,33.5 L19,22.5 L9,28 L13.0202169,30.2111193 L13.1443877,30 L15,31.0526316 L14.8900669,31.2395368 Z"/>
    <path fill="#EA4A34" fill-rule="nonzero" d="M16.5,40 C24.5081289,40 31,33.5081289 31,25.5 C31,17.4918711 24.5081289,11 16.5,11 C8.49187113,11 2,17.4918711 2,25.5 C2,33.5081289 8.49187113,40 16.5,40 Z M16.5,42 C7.38730163,42 0,34.6126984 0,25.5 C0,16.3873016 7.38730163,9 16.5,9 C25.6126984,9 33,16.3873016 33,25.5 C33,34.6126984 25.6126984,42 16.5,42 Z"/>
    <path fill="#E74C3C" d="M51.808,34 L39.016,34 L39.016,17.2 L51.688,17.2 L51.688,20.488 L42.688,20.488 L42.688,23.896 L50.608,23.896 L50.608,27.184 L42.688,27.184 L42.688,30.712 L51.808,30.712 L51.808,34 Z M66.368,34 L54.296,34 L54.296,17.2 L57.992,17.2 L57.992,30.64 L66.368,30.64 L66.368,34 Z M81.144,34 L68.352,34 L68.352,17.2 L81.024,17.2 L81.024,20.488 L72.024,20.488 L72.024,23.896 L79.944,23.896 L79.944,27.184 L72.024,27.184 L72.024,30.712 L81.144,30.712 L81.144,34 Z M98.392,31.288 C96.664,33.136 94.744,34.288 91.504,34.288 C86.56,34.288 82.888,30.472 82.888,25.648 L82.888,25.6 C82.888,20.824 86.488,16.912 91.648,16.912 C94.816,16.912 96.712,17.968 98.272,19.504 L95.92,22.216 C94.624,21.04 93.304,20.32 91.624,20.32 C88.792,20.32 86.752,22.672 86.752,25.552 L86.752,25.6 C86.752,28.48 88.744,30.88 91.624,30.88 C93.544,30.88 94.72,30.112 96.04,28.912 L98.392,31.288 Z M113.264,20.608 L108.152,20.608 L108.152,34 L104.456,34 L104.456,20.608 L99.344,20.608 L99.344,17.2 L113.264,17.2 L113.264,20.608 Z M129.816,34 L125.496,34 L121.896,28.624 L118.992,28.624 L118.992,34 L115.296,34 L115.296,17.2 L122.976,17.2 C126.936,17.2 129.312,19.288 129.312,22.744 L129.312,22.792 C129.312,25.504 127.848,27.208 125.712,28 L129.816,34 Z M125.568,22.984 L125.568,22.936 C125.568,21.352 124.464,20.536 122.664,20.536 L118.992,20.536 L118.992,25.36 L122.736,25.36 C124.536,25.36 125.568,24.4 125.568,22.984 Z M135.712,34 L132.016,34 L132.016,17.2 L135.712,17.2 L135.712,34 Z M153.872,31.288 C152.144,33.136 150.224,34.288 146.984,34.288 C142.04,34.288 138.368,30.472 138.368,25.648 L138.368,25.6 C138.368,20.824 141.968,16.912 147.128,16.912 C150.296,16.912 152.192,17.968 153.752,19.504 L151.4,22.216 C150.104,21.04 148.784,20.32 147.104,20.32 C144.272,20.32 142.232,22.672 142.232,25.552 L142.232,25.6 C142.232,28.48 144.224,30.88 147.104,30.88 C149.024,30.88 150.2,30.112 151.52,28.912 L153.872,31.288 Z M172.392,34 L168.528,34 L166.992,30.232 L159.888,30.232 L158.352,34 L154.584,34 L161.784,17.08 L165.192,17.08 L172.392,34 Z M165.672,26.968 L163.44,21.52 L161.208,26.968 L165.672,26.968 Z M186.256,34 L174.184,34 L174.184,17.2 L177.88,17.2 L177.88,30.64 L186.256,30.64 L186.256,34 Z"/>
    <path fill="#2C3E50" d="M203.032,34 L190.24,34 L190.24,17.2 L202.912,17.2 L202.912,20.488 L193.912,20.488 L193.912,23.896 L201.832,23.896 L201.832,27.184 L193.912,27.184 L193.912,30.712 L203.032,30.712 L203.032,34 Z M220.448,34 L217.304,34 L209.168,23.32 L209.168,34 L205.52,34 L205.52,17.2 L208.928,17.2 L216.8,27.544 L216.8,17.2 L220.448,17.2 L220.448,34 Z M238.944,31.624 C237.216,33.088 234.84,34.288 231.768,34.288 C226.536,34.288 222.936,30.616 222.936,25.648 L222.936,25.6 C222.936,20.824 226.656,16.912 231.744,16.912 C234.768,16.912 236.592,17.728 238.344,19.216 L236.016,22.024 C234.72,20.944 233.568,20.32 231.624,20.32 C228.936,20.32 226.8,22.696 226.8,25.552 L226.8,25.6 C226.8,28.672 228.912,30.928 231.888,30.928 C233.232,30.928 234.432,30.592 235.368,29.92 L235.368,27.52 L231.648,27.52 L231.648,24.328 L238.944,24.328 L238.944,31.624 Z M245.56,34 L241.864,34 L241.864,17.2 L245.56,17.2 L245.56,34 Z M263.888,34 L260.744,34 L252.608,23.32 L252.608,34 L248.96,34 L248.96,17.2 L252.368,17.2 L260.24,27.544 L260.24,17.2 L263.888,17.2 L263.888,34 Z M279.912,34 L267.12,34 L267.12,17.2 L279.792,17.2 L279.792,20.488 L270.792,20.488 L270.792,23.896 L278.712,23.896 L278.712,27.184 L270.792,27.184 L270.792,30.712 L279.912,30.712 L279.912,34 Z M295.192,34 L282.4,34 L282.4,17.2 L295.072,17.2 L295.072,20.488 L286.072,20.488 L286.072,23.896 L293.992,23.896 L293.992,27.184 L286.072,27.184 L286.072,30.712 L295.192,30.712 L295.192,34 Z M312.2,34 L307.88,34 L304.28,28.624 L301.376,28.624 L301.376,34 L297.68,34 L297.68,17.2 L305.36,17.2 C309.32,17.2 311.696,19.288 311.696,22.744 L311.696,22.792 C311.696,25.504 310.232,27.208 308.096,28 L312.2,34 Z M307.952,22.984 L307.952,22.936 C307.952,21.352 306.848,20.536 305.048,20.536 L301.376,20.536 L301.376,25.36 L305.12,25.36 C306.92,25.36 307.952,24.4 307.952,22.984 Z M318.096,34 L314.4,34 L314.4,17.2 L318.096,17.2 L318.096,34 Z M336.424,34 L333.28,34 L325.144,23.32 L325.144,34 L321.496,34 L321.496,17.2 L324.904,17.2 L332.776,27.544 L332.776,17.2 L336.424,17.2 L336.424,34 Z M354.92,31.624 C353.192,33.088 350.816,34.288 347.744,34.288 C342.512,34.288 338.912,30.616 338.912,25.648 L338.912,25.6 C338.912,20.824 342.632,16.912 347.72,16.912 C350.744,16.912 352.568,17.728 354.32,19.216 L351.992,22.024 C350.696,20.944 349.544,20.32 347.6,20.32 C344.912,20.32 342.776,22.696 342.776,25.552 L342.776,25.6 C342.776,28.672 344.888,30.928 347.864,30.928 C349.208,30.928 350.408,30.592 351.344,29.92 L351.344,27.52 L347.624,27.52 L347.624,24.328 L354.92,24.328 L354.92,31.624 Z"/>
  </g>
</svg>
